<svg xmlns="http://www.w3.org/2000/svg" width="92.224" height="92.212" viewBox="0 0 92.224 92.212">
  <g id="Layer_57" data-name="Layer 57" transform="translate(-1.246 -1.25)">
    <path id="Path_3" data-name="Path 3" d="M90.256,44.139a3.26,3.26,0,0,0-3.217,3.217V64.511L69.112,44.01a12.223,12.223,0,0,0-17.8,0L39.047,58.078l-4.032-4.889a11.837,11.837,0,0,0-18.185,0L7.7,64.211V21.622A13.982,13.982,0,0,1,21.634,7.683H51.656a3.217,3.217,0,0,0,0-6.433H21.634A20.372,20.372,0,0,0,1.262,21.622V73.089a.386.386,0,0,0,0,.214A20.372,20.372,0,0,0,21.634,93.461H73.1A20.33,20.33,0,0,0,93.43,73.388V47.356a3.26,3.26,0,0,0-3.174-3.217Z" transform="translate(0 0)" fill="#bbbfc0"/>
    <path id="Path_4" data-name="Path 4" d="M4.25,16.044A11.794,11.794,0,1,0,16.044,4.25,11.794,11.794,0,0,0,4.25,16.044Zm17.156,0a5.361,5.361,0,1,1-5.361-5.361A5.361,5.361,0,0,1,21.406,16.044Z" transform="translate(9.878 9.867)" fill="#bbbfc0"/>
    <path id="Path_5" data-name="Path 5" d="M30.346,33.417a16,16,0,0,0,8.838-2.661l6.045,6.006a3.215,3.215,0,1,0,4.546-4.546l-6-6.047a16.083,16.083,0,1,0-13.424,7.248Zm0-25.733a9.65,9.65,0,1,1-9.329,7.149,9.65,9.65,0,0,1,9.329-7.149Z" transform="translate(42.755 0)" fill="#bbbfc0"/>
  </g>
</svg>
